<svg width="1381" height="1381" viewBox="0 0 1381 1381" fill="none" xmlns="http://www.w3.org/2000/svg">
<circle cx="690.5" cy="690.5" r="670.5" fill="white" stroke="#B89149" stroke-width="40"/>
<path d="M325.57 1149.05C372.829 1149.05 411.14 1110.74 411.14 1063.48C411.14 1016.22 372.829 977.91 325.57 977.91C278.311 977.91 240 1016.22 240 1063.48C240 1110.74 278.311 1149.05 325.57 1149.05Z" fill="black"/>
<path d="M1093.84 1059C1079.92 1056.59 1068.73 1051.15 1060.28 1042.67C1051.83 1034.19 1045.49 1021.8 1041.28 1005.49C1037.03 989.163 1034.92 966.497 1034.93 937.49C1034.93 872.19 1035.84 806.583 1037.65 740.67C1039.46 674.757 1040.37 603.09 1040.37 525.67C1040.37 472.47 1032.21 427.137 1015.88 389.67C999.553 352.203 976.577 321.67 946.95 298.07C917.31 274.477 882.24 257.243 841.74 246.37C801.24 235.497 756.783 230.04 708.37 230C650.323 230 591.97 240.883 533.31 262.65C474.65 284.417 419.93 315.86 369.15 356.98L392.73 465.82H405.43C413.87 452.533 426.263 440.137 442.61 428.63C459.873 416.608 478.075 405.994 497.04 396.89C517.049 387.186 538.007 379.576 559.58 374.18C580.329 368.868 601.652 366.128 623.07 366.02C677.49 366.02 720.117 381.44 750.95 412.28C781.783 443.12 797.203 480.307 797.21 523.84C797.21 539.567 795.093 552.87 790.86 563.75C786.627 574.63 777.267 584.617 762.78 593.71C748.273 602.783 726.207 611.853 696.58 620.92C666.953 629.987 626.74 640.567 575.94 652.66C534.82 662.34 497.937 674.13 465.29 688.03C432.643 701.93 404.527 719.163 380.94 739.73C357.471 760.146 338.875 785.562 326.52 814.11C313.82 843.13 307.47 877.597 307.47 917.51C307.47 921.74 307.59 925.97 307.79 930.2C326.884 927.585 346.317 929.088 364.782 934.609C383.247 940.13 400.316 949.54 414.841 962.207C429.366 974.874 441.01 990.505 448.991 1008.05C456.972 1025.59 461.104 1044.64 461.11 1063.91C461.148 1086.93 455.266 1109.57 444.03 1129.66C445.66 1130.3 447.3 1130.94 448.96 1131.55C481.627 1143.63 520.93 1149.68 566.87 1149.7C622.477 1149.7 668.733 1138.21 705.64 1115.23C742.547 1092.25 774.897 1061.41 802.69 1022.72C817.21 1063.84 838.373 1095.28 866.18 1117.04C893.987 1138.8 930.267 1149.69 975.02 1149.7C1002.82 1149.7 1028.82 1146.07 1053.02 1138.81C1077.22 1131.55 1106.85 1120.67 1141.91 1106.16V1062.62C1123.77 1062.62 1107.75 1061.41 1093.84 1059ZM799.97 731.57C799.35 758.783 799.047 798.39 799.06 850.39C799.06 909.657 786.667 954.4 761.88 984.62C737.093 1014.84 704.76 1029.96 664.88 1029.97C633.42 1029.97 608.327 1018.18 589.6 994.6C570.873 971.02 561.5 936.857 561.48 892.11C561.48 846.17 569.037 811.1 584.15 786.9C599.263 762.7 618.613 743.653 642.2 729.76C666.831 715.393 692.994 703.83 720.2 695.29C748.274 686.366 775.329 674.511 800.92 659.92C800.893 680.5 800.577 704.383 799.97 731.57Z" fill="black"/>
</svg>
