<svg width="1000" height="1000" viewBox="0 0 1000 1000" fill="none" xmlns="http://www.w3.org/2000/svg">
<circle cx="500" cy="500" r="500" fill="#B89149"/>
<path fill-rule="evenodd" clip-rule="evenodd" d="M311.298 741.572C311.298 772.445 286.258 797.471 255.37 797.471C224.483 797.471 199.443 772.445 199.443 741.572C199.443 710.705 224.483 685.679 255.37 685.679C286.258 685.679 311.298 710.705 311.298 741.572Z" fill="white"/>
<path fill-rule="evenodd" clip-rule="evenodd" d="M565.445 524.75C565.039 542.526 564.853 568.411 564.853 602.368C564.853 641.087 556.741 670.32 540.548 690.055C524.338 709.816 503.2 719.681 477.115 719.681C456.551 719.681 440.157 711.979 427.91 696.575C415.646 681.171 409.532 658.862 409.532 629.622C409.532 599.611 414.461 576.706 424.353 560.894C434.227 545.099 446.881 532.657 462.295 523.566C477.707 514.493 494.697 506.976 513.278 501.05C531.84 495.125 549.441 487.423 566.04 477.942C566.04 491.385 565.837 506.976 565.445 524.75ZM757.522 738.645C748.423 737.07 741.109 733.517 735.586 727.977C730.05 722.463 725.9 714.35 723.135 703.689C720.357 693.021 718.991 678.212 718.991 659.247C718.991 616.589 719.579 573.744 720.769 530.676C721.952 487.627 722.547 440.819 722.547 390.252C722.547 355.497 717.207 325.872 706.54 301.375C695.866 276.898 680.839 256.938 661.486 241.532C642.106 226.127 619.19 214.869 592.719 207.759C566.225 200.65 537.176 197.095 505.572 197.095C467.63 197.095 429.485 204.205 391.155 218.425C352.807 232.646 317.052 253.197 283.853 280.045L299.267 351.145H307.567C313.086 342.462 321.201 334.37 331.872 326.853C342.544 319.354 354.399 312.448 367.442 306.115C380.484 299.802 394.12 294.858 408.347 291.303C422.576 287.747 436.395 285.971 449.845 285.971C485.415 285.971 513.278 296.044 533.434 316.187C553.59 336.333 563.667 360.627 563.667 389.067C563.667 399.343 562.28 408.026 559.518 415.137C556.741 422.247 550.625 428.765 541.14 434.689C531.655 440.615 517.224 446.539 497.863 452.466C478.486 458.39 452.217 465.315 419.018 473.202C392.136 479.535 368.034 487.238 346.692 496.31C325.351 505.401 306.974 516.66 291.559 530.083C276.146 543.526 264.289 559.708 255.989 578.669C247.69 597.632 243.541 620.143 243.541 646.215C243.541 648.985 243.616 651.748 243.751 654.505C247.674 653.976 251.678 653.688 255.749 653.688C304.468 653.688 343.962 693.165 343.962 741.859C343.962 757.452 339.906 772.098 332.798 784.804C333.865 785.229 334.935 785.64 336.022 786.045C357.365 793.93 383.04 797.896 413.089 797.896C449.438 797.896 479.673 790.377 503.792 775.384C527.894 760.385 549.031 740.239 567.224 714.944C576.712 741.807 590.53 762.345 608.726 776.567C626.896 790.788 650.61 797.896 679.859 797.896C698.036 797.896 715.023 795.524 730.841 790.788C746.645 786.045 766.006 778.938 788.941 769.453V741.016C777.084 741.016 766.6 740.239 757.522 738.645Z" fill="white"/>
</svg>
