<svg width="436" height="184" viewBox="0 0 436 184" fill="none" xmlns="http://www.w3.org/2000/svg">
<path d="M28.7502 154.36C31.9402 157.55 33.5402 161.4 33.5402 165.88C33.5402 170.37 31.9402 174.26 28.7502 177.53C25.5502 180.81 21.7202 182.45 17.2302 182.45C12.5702 182.45 8.64016 180.85 5.45016 177.66C2.25016 174.47 0.660156 170.63 0.660156 166.14C0.660156 161.65 2.25016 157.77 5.45016 154.49C8.64016 151.21 12.5702 149.57 17.2302 149.57C21.7102 149.57 25.5502 151.17 28.7502 154.36Z" fill="white"/>
<path d="M301.48 5.70004C304.67 8.89004 306.27 12.74 306.27 17.22C306.27 21.71 304.67 25.6 301.48 28.87C298.28 32.15 294.45 33.79 289.96 33.79C285.3 33.79 281.37 32.19 278.18 29C274.98 25.81 273.39 21.97 273.39 17.48C273.39 12.99 274.98 9.11004 278.18 5.83004C281.37 2.55004 285.3 0.910034 289.96 0.910034C294.45 0.910034 298.29 2.51004 301.48 5.70004Z" fill="white"/>
<path d="M62.53 85.89L63.57 69.07C69.26 64.41 75.35 60.62 81.82 57.68C88.29 54.75 96.19 53.28 105.51 53.28C111.73 53.28 117.89 54.15 124.02 55.87C130.14 57.6 135.54 60.62 140.2 64.93C143.65 68.21 146.28 72.05 148.1 76.45C149.91 80.85 150.82 86.68 150.82 93.92C150.82 95.47 150.26 161.32 151.21 165.11C152.15 168.91 154.87 170.8 159.36 170.8C161.6 170.8 162.59 170.58 164.97 169.84L166.09 176.75C162.29 178.65 159.01 180.07 156.25 181.02C153.49 181.97 150.56 182.45 147.45 182.45C142.96 182.45 138.91 181.02 135.28 178.17C131.66 175.32 129.15 171.14 127.77 165.62C122.42 171.14 116.81 175.55 110.94 178.82C105.07 182.09 97.65 183.74 88.68 183.74C82.29 183.74 76.81 182.66 72.24 180.51C67.67 178.35 63.96 175.55 61.11 172.1C58.26 168.65 56.19 164.94 54.9 160.97C53.61 157 52.96 153.12 52.96 149.32C52.96 142.76 54.13 137.33 56.45 133.01C58.78 128.7 61.93 125.24 65.9 122.65C69.87 120.07 74.1 118.08 78.59 116.7C83.07 115.32 88.85 113.85 95.93 112.3L118.45 107.38C122.08 106.52 124.57 105.14 125.96 103.24C127.34 101.34 128.03 98.58 128.03 94.96C128.03 86.33 125.35 79.47 120 74.38C114.65 69.29 107.66 66.74 99.03 66.74C94.02 66.74 89.75 67.39 86.22 68.68C82.68 69.97 79.83 71.66 77.68 73.72C75.52 75.79 73.84 77.83 72.63 79.81C71.42 81.8 70.38 83.74 69.52 85.63V85.89H62.53V85.89ZM127.51 115.92C116.81 117.47 108.14 119.33 101.49 121.49C94.84 123.65 89.84 126.02 86.48 128.61C83.11 131.2 80.87 133.96 79.75 136.89C78.63 139.82 78.07 143.28 78.07 147.25C78.07 154.84 80.35 160.37 84.93 163.82C89.5 167.28 94.55 169 100.07 169C106.97 169 113.27 166.63 118.97 161.88C124.67 157.13 127.51 151.31 127.51 144.41V115.92V115.92Z" fill="white"/>
<path d="M253.83 78.9C251.76 77.7 249.78 76.83 247.88 76.31C245.98 75.79 243.48 75.54 240.37 75.54C233.81 75.54 228.42 77.14 224.19 80.33C219.96 83.53 216.9 86.85 215 90.3C214.13 92.37 213.82 93.09 213.21 95.07L213.2 183.8H185.49V53.25H213.2L213.32 77.86C214.7 74.58 213.65 77.05 215.64 73.85C217.62 70.66 220.3 67.47 223.67 64.27C227.03 61.08 231.13 58.45 235.97 56.38C240.8 54.31 246.41 53.27 252.79 53.27C253.31 53.27 256.93 53.53 257.45 53.53C255.9 59.39 255.29 74.84 255.64 77.6L253.83 78.9Z" fill="white"/>
<path d="M276.63 53.3H302.77L303.03 183.79H276.88L276.63 53.3Z" fill="white"/>
<path d="M331.76 85.89L332.79 69.07C338.48 64.41 344.57 60.62 351.04 57.68C357.51 54.75 365.4 53.28 374.72 53.28C380.94 53.28 387.1 54.15 393.23 55.87C399.35 57.6 404.75 60.62 409.41 64.93C412.86 68.21 415.49 72.05 417.31 76.45C419.12 80.85 420.03 86.68 420.03 93.92C420.03 95.47 419.47 161.32 420.42 165.11C421.36 168.91 424.08 170.8 428.57 170.8C430.81 170.8 432.97 170.37 435.04 169.51L435.3 176.76C431.5 178.66 428.22 180.08 425.46 181.03C422.7 181.98 419.76 182.46 416.66 182.46C412.17 182.46 408.12 181.03 404.49 178.18C400.86 175.33 398.36 171.15 396.99 165.63C391.64 171.15 386.02 175.56 380.16 178.83C374.29 182.11 366.87 183.75 357.9 183.75C351.51 183.75 346.03 182.67 341.46 180.52C336.89 178.36 333.18 175.56 330.32 172.11C327.47 168.66 325.4 164.95 324.11 160.98C322.82 157.01 322.17 153.13 322.17 149.33C322.17 142.77 323.34 137.34 325.67 133.02C328 128.71 331.15 125.25 335.12 122.66C339.09 120.08 343.32 118.09 347.8 116.71C352.29 115.33 358.07 113.86 365.15 112.31L387.67 107.39C391.29 106.53 393.79 105.15 395.17 103.25C396.55 101.35 397.24 98.59 397.24 94.97C397.24 86.34 394.56 79.48 389.21 74.39C383.86 69.3 376.87 66.75 368.24 66.75C363.24 66.75 358.96 67.4 355.43 68.69C351.89 69.98 349.04 71.67 346.89 73.73C344.73 75.8 343.05 77.84 341.84 79.82C340.63 81.81 339.6 83.75 338.74 85.64V85.9H331.76V85.89ZM396.73 115.92C386.03 117.47 377.36 119.33 370.71 121.49C364.07 123.65 359.06 126.02 355.7 128.61C352.34 131.2 350.09 133.96 348.97 136.89C347.85 139.82 347.29 143.28 347.29 147.25C347.29 154.84 349.57 160.37 354.15 163.82C358.72 167.28 363.77 169 369.29 169C376.19 169 382.49 166.63 388.19 161.88C393.88 157.13 396.73 151.31 396.73 144.41V115.92Z" fill="white"/>
</svg>
