<?xml version="1.0" encoding="utf-8"?>
<!-- Generator: Adobe Illustrator 24.3.0, SVG Export Plug-In . SVG Version: 6.00 Build 0)  -->
<svg version="1.1" id="Layer_1" xmlns="http://www.w3.org/2000/svg" xmlns:xlink="http://www.w3.org/1999/xlink" x="0px" y="0px"
	 viewBox="0 0 734.71 301.87" style="enable-background:new 0 0 734.71 301.87;" xml:space="preserve">
<style type="text/css">
	.st0{fill:#C09F5E;}
	.st1{fill:none;stroke:#B9913C;stroke-width:2;stroke-linecap:round;stroke-linejoin:round;stroke-miterlimit:10;}
	.st2{fill:#494949;}
</style>
<path class="st0" d="M197.09,217.35c0.58,4.07-2.25,7.84-6.32,8.42c-4.07,0.58-7.84-2.25-8.42-6.32c-0.58-4.07,2.25-7.84,6.32-8.42
	C192.74,210.45,196.51,213.28,197.09,217.35z M260.01,208.32l0.53,3.75c-2.84,1.68-5.26,2.98-7.25,3.9c-2,0.92-4.19,1.55-6.58,1.89
	c-3.85,0.55-7.11,0.06-9.77-1.48c-2.66-1.53-4.87-3.98-6.62-7.35c-1.92,3.68-4.33,6.73-7.22,9.16c-2.9,2.43-6.74,3.99-11.53,4.67
	c-3.96,0.56-7.42,0.52-10.38-0.12c-0.15-0.03-0.3-0.07-0.45-0.1c0.7-1.81,0.96-3.82,0.67-5.87c-0.91-6.42-6.86-10.88-13.28-9.97
	c-0.54,0.08-1.06,0.19-1.57,0.33c-0.07-0.36-0.13-0.72-0.18-1.09c-0.49-3.44-0.36-6.48,0.37-9.14s2-5.01,3.78-7.07
	c1.78-2.06,3.99-3.89,6.63-5.49c2.64-1.6,5.67-3.06,9.1-4.4c4.23-1.66,7.56-3.07,10-4.21c2.44-1.14,4.23-2.2,5.37-3.15
	c1.14-0.96,1.82-1.93,2.05-2.92c0.23-0.99,0.25-2.16,0.06-3.51c-0.53-3.75-2.32-6.76-5.35-9.04c-3.03-2.28-6.89-3.08-11.58-2.42
	c-1.77,0.25-3.56,0.75-5.37,1.48c-1.81,0.74-3.51,1.64-5.11,2.72c-1.6,1.08-3.03,2.21-4.3,3.4c-1.27,1.19-2.18,2.41-2.75,3.66
	l-1.09,0.16l-3.36-9.08c3.87-4.16,8.2-7.54,12.98-10.14c4.78-2.59,9.68-4.25,14.67-4.96c4.16-0.59,8.06-0.67,11.68-0.23
	c3.62,0.44,6.85,1.5,9.69,3.16c2.84,1.67,5.19,4.02,7.06,7.04c1.87,3.03,3.12,6.83,3.78,11.42c0.95,6.67,1.75,12.85,2.4,18.55
	c0.65,5.7,1.38,11.36,2.18,16.98c0.36,2.5,0.81,4.43,1.38,5.78c0.56,1.35,1.26,2.35,2.1,2.97c0.83,0.63,1.86,0.96,3.09,0.99
	C257.05,208.64,258.45,208.54,260.01,208.32z M225.71,177.82c-2.01,1.56-4.18,2.91-6.52,4.04c-2.34,1.13-4.43,2.44-6.29,3.92
	c-1.86,1.49-3.29,3.36-4.3,5.63c-1.01,2.27-1.23,5.38-0.66,9.34c0.55,3.85,1.77,6.68,3.68,8.48c1.9,1.8,4.21,2.51,6.92,2.12
	c3.44-0.49,6.04-2.19,7.8-5.09c1.76-2.91,2.28-6.91,1.56-12.02c-0.64-4.48-1.1-7.89-1.38-10.24
	C226.23,181.65,225.96,179.59,225.71,177.82z"/>
<path class="st0" d="M255.92,137.04c-0.36,4.4-4.22,7.68-8.62,7.32c-4.4-0.36-7.68-4.22-7.32-8.62c0.36-4.4,4.22-7.68,8.62-7.32
	C253,128.78,256.28,132.64,255.92,137.04z M323.99,142.53l-0.33,4.05c-3.38,1.08-6.22,1.87-8.53,2.36
	c-2.31,0.49-4.76,0.63-7.35,0.42c-4.17-0.34-7.46-1.63-9.89-3.87c-2.43-2.24-4.16-5.33-5.19-9.27c-2.89,3.39-6.13,6.02-9.74,7.88
	c-3.61,1.86-8.01,2.58-13.19,2.15c-4.28-0.35-7.89-1.21-10.84-2.59c-0.15-0.07-0.3-0.14-0.44-0.21c1.16-1.73,1.91-3.77,2.09-5.99
	c0.57-6.94-4.6-13.03-11.54-13.6c-0.58-0.05-1.15-0.05-1.72-0.02c0.01-0.4,0.03-0.79,0.07-1.18c0.3-3.72,1.16-6.88,2.56-9.48
	s3.28-4.78,5.64-6.51c2.35-1.73,5.1-3.12,8.25-4.17c3.15-1.04,6.67-1.86,10.58-2.45c4.82-0.74,8.65-1.42,11.48-2.04
	c2.83-0.62,4.95-1.3,6.37-2.03c1.42-0.73,2.37-1.59,2.85-2.57c0.48-0.98,0.78-2.2,0.9-3.67c0.33-4.05-0.82-7.64-3.46-10.74
	c-2.64-3.11-6.49-4.87-11.56-5.28c-1.92-0.16-3.91-0.06-5.98,0.28c-2.07,0.34-4.07,0.89-6,1.63c-1.93,0.75-3.7,1.6-5.31,2.54
	c-1.61,0.95-2.86,2.01-3.75,3.18l-1.18-0.1l-1.37-10.32c5.04-3.44,10.38-5.95,16.01-7.53c5.63-1.58,11.15-2.15,16.55-1.71
	c4.5,0.37,8.6,1.21,12.29,2.54c3.69,1.32,6.82,3.19,9.41,5.62c2.58,2.42,4.49,5.44,5.72,9.06c1.23,3.62,1.65,7.9,1.24,12.86
	c-0.59,7.21-1.22,13.88-1.89,20c-0.67,6.13-1.26,12.23-1.75,18.31c-0.22,2.7-0.2,4.83,0.07,6.38c0.27,1.55,0.77,2.76,1.49,3.61
	c0.72,0.85,1.72,1.45,3,1.78C320.81,142.16,322.3,142.39,323.99,142.53z M295.29,102.42c-2.48,1.16-5.07,2.05-7.79,2.68
	c-2.72,0.63-5.23,1.5-7.53,2.62c-2.3,1.12-4.25,2.74-5.84,4.88c-1.59,2.14-2.56,5.35-2.91,9.63c-0.34,4.17,0.27,7.42,1.84,9.76
	c1.57,2.34,3.81,3.63,6.74,3.87c3.72,0.3,6.84-0.86,9.38-3.48c2.54-2.62,4.03-6.7,4.49-12.22c0.4-4.84,0.72-8.53,0.99-11.06
	C294.93,106.56,295.14,104.34,295.29,102.42z"/>
<path class="st0" d="M359.15,194.16c0.24,3.28-2.23,6.13-5.51,6.37s-6.13-2.23-6.37-5.51c-0.24-3.28,2.23-6.13,5.51-6.37
	S358.91,190.88,359.15,194.16z M409.86,190.44l0.22,3.02c-2.36,1.18-4.36,2.09-6.01,2.71c-1.64,0.62-3.43,1.01-5.36,1.15
	c-3.11,0.22-5.68-0.35-7.72-1.72c-2.04-1.37-3.67-3.45-4.88-6.23c-1.74,2.83-3.83,5.13-6.27,6.91c-2.45,1.78-5.6,2.81-9.46,3.09
	c-3.19,0.23-5.95,0.01-8.27-0.67c-0.12-0.03-0.24-0.07-0.35-0.11c0.66-1.4,0.98-2.99,0.86-4.65c-0.37-5.17-4.87-9.06-10.04-8.69
	c-0.43,0.03-0.86,0.09-1.27,0.18c-0.04-0.29-0.06-0.59-0.09-0.88c-0.2-2.77,0.07-5.19,0.8-7.27c0.74-2.08,1.87-3.89,3.4-5.43
	c1.53-1.54,3.4-2.88,5.6-4.01c2.2-1.13,4.7-2.13,7.5-3.01c3.46-1.09,6.2-2.03,8.21-2.81c2.01-0.78,3.5-1.52,4.46-2.22
	c0.96-0.7,1.56-1.44,1.8-2.22c0.24-0.78,0.32-1.71,0.24-2.8c-0.22-3.02-1.47-5.53-3.77-7.51c-2.29-1.99-5.33-2.84-9.11-2.57
	c-1.43,0.1-2.88,0.4-4.37,0.88c-1.48,0.49-2.89,1.12-4.23,1.89c-1.34,0.77-2.54,1.6-3.62,2.48c-1.08,0.88-1.88,1.8-2.39,2.77
	l-0.88,0.06l-2.18-7.44c3.32-3.11,6.96-5.56,10.92-7.37c3.96-1.8,7.96-2.85,11.99-3.14c3.36-0.24,6.47-0.09,9.34,0.46
	c2.87,0.55,5.39,1.57,7.56,3.06c2.17,1.49,3.92,3.49,5.24,6.01c1.32,2.52,2.12,5.63,2.38,9.32c0.39,5.37,0.68,10.35,0.89,14.93
	c0.2,4.59,0.47,9.14,0.8,13.67c0.15,2.01,0.4,3.58,0.78,4.69c0.38,1.11,0.88,1.94,1.51,2.49c0.63,0.55,1.43,0.87,2.41,0.97
	C407.49,190.53,408.6,190.53,409.86,190.44z M384.18,164.2c-1.69,1.13-3.5,2.09-5.43,2.86c-1.93,0.77-3.67,1.7-5.24,2.78
	c-1.57,1.08-2.82,2.5-3.74,4.26c-0.93,1.76-1.28,4.23-1.05,7.42c0.22,3.11,1.04,5.43,2.47,6.97c1.42,1.54,3.22,2.24,5.4,2.08
	c2.77-0.2,4.94-1.41,6.51-3.63c1.57-2.22,2.21-5.39,1.91-9.5c-0.26-3.61-0.44-6.36-0.53-8.25
	C384.38,167.28,384.28,165.63,384.18,164.2z"/>
<path class="st0" d="M447.97,162.97c0,4.91-3.98,8.89-8.89,8.89s-8.89-3.98-8.89-8.89c0-4.91,3.98-8.89,8.89-8.89
	S447.97,158.06,447.97,162.97z M523.9,162.88v4.52c-3.65,1.51-6.72,2.64-9.24,3.39c-2.51,0.75-5.22,1.13-8.1,1.13
	c-4.65,0-8.42-1.13-11.31-3.39c-2.89-2.26-5.09-5.53-6.6-9.8c-2.89,4.02-6.25,7.23-10.08,9.61c-3.83,2.39-8.64,3.58-14.42,3.58
	c-4.78,0-8.86-0.63-12.25-1.89c-0.17-0.06-0.34-0.13-0.51-0.2c1.13-2.02,1.77-4.35,1.77-6.83c0-7.74-6.28-14.02-14.02-14.02
	c-0.65,0-1.28,0.04-1.91,0.13c-0.02-0.44-0.03-0.88-0.03-1.32c0-4.15,0.66-7.73,1.98-10.74s3.2-5.59,5.65-7.73
	c2.45-2.13,5.37-3.93,8.76-5.37c3.39-1.44,7.22-2.67,11.5-3.68c5.28-1.25,9.45-2.36,12.53-3.3c3.08-0.94,5.37-1.88,6.88-2.83
	c1.51-0.94,2.48-1.98,2.92-3.11c0.44-1.13,0.66-2.51,0.66-4.15c0-4.52-1.6-8.39-4.81-11.59c-3.2-3.2-7.63-4.81-13.29-4.81
	c-2.14,0-4.33,0.28-6.6,0.85c-2.26,0.57-4.43,1.35-6.5,2.36c-2.07,1.01-3.96,2.11-5.65,3.3c-1.7,1.2-2.99,2.48-3.86,3.86h-1.32
	l-2.45-11.31c5.28-4.27,10.96-7.54,17.06-9.8c6.09-2.26,12.16-3.39,18.19-3.39c5.02,0,9.64,0.57,13.85,1.7
	c4.21,1.13,7.85,2.92,10.93,5.37c3.08,2.45,5.47,5.63,7.16,9.52c1.7,3.9,2.54,8.61,2.54,14.14c0,8.04-0.09,15.49-0.28,22.33
	c-0.19,6.85-0.28,13.66-0.28,20.45c0,3.02,0.22,5.37,0.66,7.07c0.44,1.7,1.1,2.99,1.98,3.86c0.88,0.88,2.04,1.45,3.49,1.7
	C520.35,162.76,522.02,162.88,523.9,162.88z M488.47,121.04c-2.64,1.51-5.44,2.73-8.39,3.68c-2.95,0.94-5.65,2.14-8.1,3.58
	c-2.45,1.45-4.46,3.42-6.03,5.94c-1.57,2.51-2.36,6.16-2.36,10.93c0,4.65,0.97,8.2,2.92,10.65c1.95,2.45,4.55,3.68,7.82,3.68
	c4.15,0,7.51-1.57,10.08-4.71c2.57-3.14,3.86-7.79,3.86-13.95c0-5.4,0.03-9.52,0.09-12.35
	C488.44,125.66,488.47,123.18,488.47,121.04z"/>
<path class="st0" d="M570.68,118.61c-1.27,3.75-5.33,5.76-9.08,4.49s-5.76-5.33-4.49-9.08s5.33-5.76,9.08-4.49
	C569.93,110.8,571.94,114.87,570.68,118.61z M628.65,138.13l-1.17,3.45c-3.17,0.21-5.81,0.28-7.92,0.21
	c-2.11-0.07-4.27-0.48-6.48-1.23c-3.55-1.2-6.13-3.04-7.76-5.51c-1.62-2.47-2.46-5.53-2.51-9.18c-3.25,2.32-6.64,3.9-10.18,4.74
	c-3.54,0.83-7.52,0.5-11.93-0.99c-3.65-1.23-6.6-2.77-8.86-4.6c-0.12-0.09-0.23-0.19-0.34-0.28c1.38-1.25,2.48-2.86,3.12-4.76
	c2-5.91-1.17-12.32-7.09-14.32c-0.49-0.17-0.99-0.3-1.49-0.39c0.1-0.34,0.2-0.68,0.31-1.02c1.07-3.16,2.5-5.73,4.28-7.69
	c1.78-1.96,3.89-3.44,6.31-4.44c2.42-1,5.11-1.61,8.08-1.84c2.96-0.23,6.2-0.17,9.72,0.16c4.35,0.4,7.82,0.64,10.42,0.72
	c2.59,0.07,4.59-0.05,5.98-0.38c1.39-0.33,2.4-0.87,3.03-1.62c0.63-0.75,1.15-1.75,1.57-2.99c1.17-3.45,0.94-6.81-0.68-10.09
	c-1.62-3.27-4.59-5.64-8.9-7.1c-1.63-0.55-3.38-0.9-5.25-1.05c-1.87-0.15-3.73-0.11-5.57,0.12c-1.84,0.23-3.56,0.59-5.17,1.06
	c-1.6,0.47-2.92,1.12-3.95,1.95l-1.01-0.34l1.05-9.26c5.13-1.9,10.31-2.93,15.55-3.08c5.23-0.15,10.15,0.55,14.76,2.1
	c3.83,1.3,7.21,2.92,10.14,4.87c2.92,1.95,5.24,4.26,6.96,6.92c1.72,2.66,2.72,5.7,3.01,9.11c0.29,3.41-0.28,7.23-1.7,11.45
	c-2.07,6.14-4.07,11.8-5.98,16.97c-1.91,5.18-3.74,10.36-5.49,15.54c-0.78,2.3-1.22,4.16-1.32,5.56c-0.1,1.41,0.07,2.56,0.51,3.46
	c0.44,0.9,1.18,1.63,2.22,2.19C625.97,137.12,627.21,137.65,628.65,138.13z M612.4,97.06c-2.4,0.47-4.85,0.68-7.35,0.64
	c-2.5-0.04-4.87,0.17-7.11,0.64c-2.24,0.47-4.29,1.46-6.14,2.98c-1.85,1.51-3.39,4.09-4.62,7.74c-1.2,3.55-1.37,6.51-0.52,8.88
	c0.85,2.37,2.53,3.98,5.02,4.82c3.16,1.07,6.13,0.74,8.91-1c2.77-1.73,4.96-4.95,6.55-9.65c1.39-4.12,2.48-7.26,3.26-9.4
	C611.19,100.57,611.85,98.69,612.4,97.06z"/>
<path class="st0" d="M114.84,160.36c0,3.52-2.86,6.38-6.38,6.38s-6.38-2.86-6.38-6.38c0-3.52,2.86-6.38,6.38-6.38
	S114.84,156.84,114.84,160.36z M169.3,160.29v3.24c-2.62,1.08-4.82,1.89-6.62,2.43c-1.8,0.54-3.74,0.81-5.81,0.81
	c-3.34,0-6.04-0.81-8.11-2.43c-2.07-1.62-3.65-3.97-4.73-7.03c-2.07,2.89-4.48,5.18-7.23,6.9c-2.75,1.71-6.2,2.57-10.34,2.57
	c-3.43,0-6.35-0.45-8.79-1.35c-0.12-0.05-0.25-0.09-0.37-0.14c0.81-1.45,1.27-3.12,1.27-4.9c0-5.56-4.5-10.06-10.06-10.06
	c-0.46,0-0.92,0.03-1.37,0.09c-0.02-0.31-0.02-0.63-0.02-0.95c0-2.97,0.47-5.54,1.42-7.71c0.95-2.16,2.3-4.01,4.06-5.54
	c1.76-1.53,3.85-2.82,6.29-3.85c2.43-1.03,5.18-1.91,8.25-2.64c3.79-0.9,6.78-1.69,8.99-2.37c2.21-0.68,3.85-1.35,4.93-2.03
	c1.08-0.68,1.78-1.42,2.1-2.23c0.31-0.81,0.47-1.8,0.47-2.97c0-3.24-1.15-6.02-3.45-8.31c-2.3-2.3-5.48-3.45-9.53-3.45
	c-1.53,0-3.11,0.2-4.73,0.61c-1.62,0.41-3.18,0.97-4.66,1.69c-1.49,0.72-2.84,1.51-4.06,2.37c-1.22,0.86-2.14,1.78-2.77,2.77h-0.95
	l-1.76-8.11c3.79-3.06,7.86-5.41,12.24-7.03c4.37-1.62,8.72-2.43,13.05-2.43c3.6,0,6.92,0.41,9.94,1.22
	c3.02,0.81,5.63,2.1,7.84,3.85c2.21,1.76,3.92,4.03,5.14,6.83c1.22,2.79,1.83,6.17,1.83,10.14c0,5.77-0.07,11.11-0.2,16.02
	c-0.14,4.91-0.2,9.8-0.2,14.67c0,2.16,0.16,3.85,0.47,5.07c0.31,1.22,0.79,2.14,1.42,2.77c0.63,0.63,1.46,1.04,2.5,1.22
	C166.76,160.21,167.95,160.29,169.3,160.29z M143.89,130.28c-1.89,1.08-3.9,1.96-6.02,2.64c-2.12,0.68-4.06,1.53-5.81,2.57
	c-1.76,1.04-3.2,2.46-4.33,4.26c-1.13,1.8-1.69,4.42-1.69,7.84c0,3.34,0.7,5.88,2.1,7.64c1.4,1.76,3.27,2.64,5.61,2.64
	c2.97,0,5.38-1.13,7.23-3.38c1.85-2.25,2.77-5.59,2.77-10c0-3.87,0.02-6.83,0.07-8.86C143.86,133.59,143.89,131.81,143.89,130.28z"
	/>
<g>
	<polyline class="st1" points="461.95,254.05 483.21,243.25 462.63,231.25 	"/>
	<polyline class="st1" points="444.8,254.05 466.06,243.25 445.49,231.25 	"/>
</g>
<g>
	<polyline class="st1" points="516.62,53.36 537.89,42.56 517.31,30.56 	"/>
	<polyline class="st1" points="499.47,53.36 520.74,42.56 500.16,30.56 	"/>
</g>
<g>
	<polyline class="st1" points="366.79,98.19 388.06,87.39 367.48,75.38 	"/>
	<polyline class="st1" points="349.64,98.19 370.91,87.39 350.33,75.38 	"/>
</g>
<g>
	<polyline class="st1" points="299.59,206.04 320.86,195.24 300.28,183.24 	"/>
	<polyline class="st1" points="282.44,206.04 303.71,195.24 283.13,183.24 	"/>
</g>
<g>
	<polyline class="st1" points="159.7,53.36 180.97,42.56 160.39,30.56 	"/>
	<polyline class="st1" points="142.55,53.36 163.82,42.56 143.24,30.56 	"/>
</g>
<g>
	<rect x="292.9" y="262.89" class="st2" width="151.9" height="6.33"/>
	<rect x="324.54" y="231.25" class="st2" width="6.33" height="56.96"/>
	<rect x="406.82" y="231.25" class="st2" width="6.33" height="56.96"/>
	<path class="st2" d="M292.9,269.22v-6.33c17.45,0,31.65-14.2,31.65-31.65h6.33C330.87,252.19,313.84,269.22,292.9,269.22z"/>
	<path class="st2" d="M362.52,269.22c-20.94,0-37.97-17.03-37.97-37.97h6.33c0,17.45,14.2,31.65,31.65,31.65V269.22z"/>
	<path class="st2" d="M375.18,269.22v-6.33c17.45,0,31.65-14.2,31.65-31.65h6.33C413.15,252.19,396.12,269.22,375.18,269.22z"/>
	<path class="st2" d="M444.8,269.22c-20.94,0-37.97-17.03-37.97-37.97h6.33c0,17.45,14.2,31.65,31.65,31.65V269.22z"/>
</g>
</svg>
