<?xml version="1.0" encoding="utf-8"?>
<!-- Generator: Adobe Illustrator 24.3.0, SVG Export Plug-In . SVG Version: 6.00 Build 0)  -->
<svg version="1.1" id="Layer_1" xmlns="http://www.w3.org/2000/svg" xmlns:xlink="http://www.w3.org/1999/xlink" x="0px" y="0px"
	 viewBox="0 0 180 180" style="enable-background:new 0 0 180 180;" xml:space="preserve">
<style type="text/css">
	.st0{fill:#FFFFFF;}
	.st1{font-family:'Raleway-Medium';}
	.st2{font-size:16px;}
</style>
<g>
	<path class="st0" d="M64.51,83.24v-4.19c0-0.96,0.4-1.87,1.09-2.53c0.6-0.59,1.42-0.9,2.26-0.86c1.68,0.08,3.01,1.48,2.99,3.16
		v4.41c0,0.52,0.42,0.93,0.93,0.93h11.29c0.52,0,0.93-0.42,0.93-0.93V72.88h3.17c2.68,0,4.89-2.09,5.03-4.77
		c0.07-1.35-0.42-2.67-1.36-3.64c-1.01-1.05-2.4-1.66-3.85-1.67h-2.98V52.46c0-0.52-0.42-0.93-0.93-0.93H56.33
		c-2.75,0-4.97,2.23-4.97,4.97v8.56h-3.17c-2.78,0-5.04,2.26-5.03,5.04c0,2.78,2.25,5.03,5.03,5.03h3.17v8.11
		c0,0.52,0.42,0.93,0.93,0.93h11.29C64.1,84.17,64.51,83.75,64.51,83.24z M62.65,79.05v3.26h-9.42V74.2c0-0.52-0.42-0.93-0.93-0.93
		h-4.1c-1.75,0-3.17-1.42-3.17-3.17c0-1.75,1.42-3.17,3.17-3.17c0,0,0,0,0,0h4.1c0.52,0,0.93-0.42,0.93-0.93v-9.5
		c0-1.72,1.39-3.11,3.11-3.11h25.81v10.35c0,0.52,0.42,0.93,0.93,0.93h3.92c0.96,0,1.87,0.4,2.53,1.09c0.59,0.6,0.9,1.41,0.86,2.25
		c-0.08,1.7-1.49,3.04-3.2,3h-4.1c-0.52,0-0.93,0.42-0.93,0.93V82.3h-9.42v-3.48c0-2.68-2.09-4.89-4.77-5.03
		c-1.35-0.08-2.67,0.42-3.64,1.37C63.25,76.18,62.65,77.58,62.65,79.05z"/>
	<path class="st0" d="M122.13,63.84H95.39c-0.52,0-0.93,0.42-0.93,0.93v11.29c0,0.52,0.42,0.93,0.93,0.93h3.88
		c0.96,0,1.87,0.4,2.53,1.09c0.59,0.6,0.9,1.42,0.86,2.26c-0.08,1.68-1.48,3.01-3.16,2.99h-4.1c-0.52,0-0.93,0.42-0.93,0.93v10.35
		h-9.42v-3.48c0-2.68-2.09-4.89-4.77-5.03c-1.36-0.06-2.68,0.45-3.64,1.42c-1.06,1.01-1.67,2.41-1.67,3.88v3.21H64.61
		c-0.52,0-0.93,0.42-0.93,0.93v26.74c0,2.75,2.23,4.97,4.97,4.97h0h53.48c2.75,0,4.97-2.23,4.97-4.97l0,0v-7.25
		c0-0.52-0.42-0.93-0.93-0.93h-3.88c-0.96,0-1.87-0.4-2.53-1.09c-0.59-0.6-0.9-1.42-0.86-2.26c0.08-1.68,1.48-3.01,3.16-2.99h4.1
		c0.52,0,0.93-0.42,0.93-0.93V68.81C127.1,66.06,124.88,63.84,122.13,63.84L122.13,63.84z M96.32,85.2h3.17
		c2.68,0,4.89-2.09,5.03-4.77c0.07-1.35-0.42-2.67-1.36-3.64c-1.01-1.07-2.42-1.67-3.89-1.67h-2.95V65.7h25.81
		c1.72,0,3.11,1.39,3.11,3.11v0v25.81h-9.42v-3.48c0-2.68-2.09-4.89-4.77-5.03c-1.36-0.06-2.68,0.45-3.64,1.42
		c-1.06,1.01-1.67,2.41-1.67,3.88v3.21h-9.42V85.2z M65.54,122.29V96.48h10.35c0.52,0,0.93-0.42,0.93-0.93v-4.19
		c0-0.96,0.4-1.87,1.09-2.53c0.6-0.59,1.41-0.9,2.25-0.86c1.69,0.08,3.02,1.47,3,3.16v4.41c0,0.52,0.42,0.93,0.93,0.93h10.35v9.42
		h-3.17c-2.68,0-4.89,2.09-5.03,4.77c-0.07,1.35,0.42,2.67,1.36,3.64c1.01,1.07,2.42,1.67,3.89,1.67h2.95v9.42H68.65
		C66.93,125.4,65.54,124.01,65.54,122.29L65.54,122.29z M125.24,105.9h-3.17c-2.68,0-4.89,2.09-5.03,4.77
		c-0.07,1.35,0.42,2.67,1.36,3.64c1.01,1.07,2.42,1.67,3.89,1.67h2.95v6.31c0,1.72-1.39,3.11-3.11,3.11l0,0H96.32v-10.35
		c0-0.52-0.42-0.93-0.93-0.93h-3.88c-0.96,0-1.87-0.4-2.53-1.09c-0.59-0.6-0.9-1.42-0.86-2.26c0.08-1.68,1.48-3.01,3.16-2.99h4.1
		c0.52,0,0.93-0.42,0.93-0.93V96.48h10.35c0.52,0,0.93-0.42,0.93-0.93v-4.19c0-0.96,0.4-1.87,1.09-2.53c0.6-0.59,1.41-0.9,2.25-0.86
		c1.69,0.08,3.02,1.47,3,3.16v4.41c0,0.52,0.42,0.93,0.93,0.93h10.35V105.9z"/>
</g>
<text transform="matrix(1 0 0 1 74.048 30.5399)" class="st0 st1 st2">.build</text>
<g>
	<path class="st0" d="M-154.15,18.99c-18.84,0-34.11,15.27-34.11,34.11s15.27,34.11,34.11,34.11s34.11-15.27,34.11-34.11
		S-135.31,18.99-154.15,18.99z M-154.15,84.94c-17.58,0-31.84-14.26-31.84-31.84s14.26-31.84,31.84-31.84s31.84,14.26,31.84,31.84
		S-136.56,84.94-154.15,84.94z"/>
	<path class="st0" d="M-124.7,55.66c0-0.41,0.06-0.83,0.08-1.24s0-0.89,0-1.32s0-0.86,0-1.32c0-0.45,0-0.83-0.08-1.24v-0.06l0,0
		c-1.27-14.26-12.58-25.56-26.84-26.83h-0.11c-0.39,0-0.78-0.07-1.14-0.08c-0.89-0.05-1.77-0.05-2.66,0c-0.39,0-0.78,0-1.14,0.08
		h-0.11c-14.28,1.24-25.62,12.55-26.89,26.83l0,0v0.06c0,0.41,0,0.83-0.08,1.24c-0.08,0.41-0.05,0.89-0.05,1.32s0,0.86,0,1.32
		s0,0.83,0.08,1.24l0,0l0,0c1.25,14.29,12.58,25.63,26.87,26.88h0.11c0.4,0,0.78,0.07,1.19,0.08l1.31,0.05h1.31
		c0.41,0,0.8,0,1.19-0.08h0.11c14.27-1.27,25.58-12.6,26.83-26.87l0,0L-124.7,55.66z M-126.86,54.01l-2.44-0.91l2.44-0.91
		c0,0.31,0,0.6,0,0.91C-126.86,53.41-126.86,53.7-126.86,54.01z M-154.81,25.81h1.57l-0.91,2.44l-0.91-2.44H-154.81z M-181.44,53.1
		c0-0.31,0-0.6,0-0.91l2.42,0.91l-2.42,0.91C-181.44,53.7-181.44,53.41-181.44,53.1z M-153.49,80.39h-1.57l0.91-2.42l0.91,2.42
		H-153.49z M-150.87,80.2l-2.21-5.88c-0.21-0.59-0.87-0.9-1.46-0.68c-0.32,0.11-0.57,0.36-0.68,0.68l-2.21,5.88
		c-12.48-1.51-22.31-11.35-23.81-23.82l5.88-2.21c0.59-0.21,0.9-0.87,0.68-1.46c-0.11-0.32-0.36-0.57-0.68-0.68l-5.88-2.21
		c1.51-12.47,11.34-22.3,23.81-23.81l2.21,5.88c0.21,0.59,0.87,0.9,1.46,0.68c0.32-0.11,0.57-0.36,0.68-0.68l2.21-5.88
		c12.47,1.51,22.3,11.34,23.81,23.81l-5.88,2.21c-0.59,0.21-0.9,0.87-0.68,1.46c0.11,0.32,0.36,0.57,0.68,0.68l5.88,2.21
		c-1.51,12.47-11.34,22.3-23.81,23.81V80.2z"/>
	<path class="st0" d="M-137.09,51.96h-3.41c-0.56-6.65-5.85-11.92-12.51-12.45v-3.47c0-0.63-0.51-1.14-1.14-1.14
		c-0.63,0-1.14,0.51-1.14,1.14v3.47c-2.05,0.16-4.04,0.8-5.81,1.85l-7.76-4.55c-0.54-0.32-1.24-0.14-1.56,0.4
		c-0.21,0.36-0.21,0.8,0,1.16l4.55,7.76c-1.06,1.77-1.71,3.77-1.88,5.83h-3.47c-0.63,0-1.14,0.51-1.14,1.14s0.51,1.14,1.14,1.14
		h3.47c0.53,6.65,5.8,11.95,12.45,12.51v3.41c0,0.63,0.51,1.14,1.14,1.14c0.63,0,1.14-0.51,1.14-1.14v-3.41
		c2.05-0.16,4.04-0.8,5.81-1.85l7.76,4.55c0.54,0.32,1.24,0.14,1.56-0.4c0.21-0.36,0.21-0.8,0-1.16l-4.55-7.76
		c1.09-1.79,1.75-3.8,1.93-5.89h3.41c0.63,0,1.14-0.51,1.14-1.14S-136.46,51.96-137.09,51.96z M-142.78,51.96h-4.36l-2.01-3.41
		c-0.1-0.19-0.26-0.35-0.45-0.45l-3.41-2.01v-4.3C-147.61,42.3-143.32,46.56-142.78,51.96z M-155.29,41.81v2.95l-3.49-2.04
		C-157.67,42.24-156.49,41.93-155.29,41.81z M-164.53,48.47l2.04,3.49h-2.95C-165.32,50.76-165.02,49.58-164.53,48.47z
		 M-165.46,54.24h4.3l2.01,3.41c0.1,0.17,0.24,0.31,0.41,0.41l3.41,2.01v4.4C-160.71,63.91-164.95,59.63-165.46,54.24z
		 M-152.96,64.39v-2.95l3.49,2.04c-1.13,0.49-2.32,0.8-3.55,0.91H-152.96z M-157.33,56.29l-8.94-15.31l15.31,8.94l8.94,15.31
		L-157.33,56.29z M-143.77,57.72l-2.04-3.48h2.95C-142.98,55.44-143.28,56.61-143.77,57.72z"/>
</g>
<text transform="matrix(1 0 0 1 -174.8366 -5.193)" class="st0 st1 st2">.learn</text>
<g>
	<path class="st0" d="M-252.9-32h-18.21v-13.42c0-2.23-1.81-4.05-4.05-4.05h-51.24c-2.23,0-4.05,1.81-4.05,4.05v30.47
		c0,2.23,1.81,4.04,4.05,4.04h3.11v10.49c0,0.52,0.32,0.99,0.8,1.18c0.15,0.06,0.31,0.09,0.47,0.09c0.34,0,0.69-0.14,0.93-0.41
		l10.63-11.37h2.27V2.51c0,2.23,1.81,4.04,4.04,4.04h35.31l10.63,11.37c0.24,0.27,0.59,0.41,0.93,0.41c0.15,0,0.32-0.03,0.47-0.09
		c0.48-0.19,0.8-0.66,0.8-1.18V6.56h3.11c2.23,0,4.05-1.81,4.05-4.04v-30.48C-248.85-30.19-250.67-32-252.9-32z M-311.01-13.46
		c-0.36,0-0.69,0.14-0.93,0.41l-8.81,9.41v-8.54c0-0.7-0.57-1.27-1.27-1.27h-4.37c-0.83,0-1.5-0.67-1.5-1.49v-30.47
		c0-0.83,0.67-1.5,1.5-1.5h51.25c0.83,0,1.5,0.67,1.5,1.5v30.47c0,0.83-0.67,1.49-1.5,1.49H-311.01z M-251.39,2.51
		c0,0.83-0.67,1.49-1.5,1.49h-4.38c-0.7,0-1.27,0.57-1.27,1.27v8.54l-8.81-9.42c-0.24-0.25-0.57-0.41-0.93-0.41h-35.84
		c-0.83,0-1.49-0.67-1.49-1.49v-13.41h30.48c2.23,0,4.05-1.81,4.05-4.04v-14.5h18.21c0.83,0,1.5,0.67,1.5,1.5V2.51H-251.39z"/>
	<path class="st0" d="M-315.16-35.44c-2.81,0-5.09,2.28-5.09,5.09s2.28,5.09,5.09,5.09s5.09-2.28,5.09-5.09
		S-312.35-35.44-315.16-35.44z M-315.16-27.8c-1.4,0-2.55-1.15-2.55-2.55s1.15-2.55,2.55-2.55s2.55,1.15,2.55,2.55
		S-313.76-27.8-315.16-27.8z"/>
	<path class="st0" d="M-299.88-25.25c2.81,0,5.09-2.28,5.09-5.09s-2.28-5.09-5.09-5.09s-5.09,2.28-5.09,5.09
		S-302.68-25.25-299.88-25.25z M-299.88-32.89c1.4,0,2.55,1.15,2.55,2.55s-1.15,2.55-2.55,2.55s-2.55-1.15-2.55-2.55
		S-301.28-32.89-299.88-32.89z"/>
	<path class="st0" d="M-284.6-25.25c2.81,0,5.09-2.28,5.09-5.09s-2.28-5.09-5.09-5.09s-5.09,2.28-5.09,5.09
		S-287.4-25.25-284.6-25.25z M-284.6-32.89c1.4,0,2.55,1.15,2.55,2.55s-1.15,2.55-2.55,2.55s-2.55-1.15-2.55-2.55
		S-286-32.89-284.6-32.89z"/>
	<circle class="st0" cx="-282.06" cy="-4.88" r="1.27"/>
	<circle class="st0" cx="-276.96" cy="-4.88" r="1.27"/>
	<circle class="st0" cx="-271.87" cy="-4.88" r="1.27"/>
</g>
<text transform="matrix(1 0 0 1 -319.8519 -73.8691)" class="st0 st1 st2">.engage</text>
</svg>
